<svg width="52" height="83" viewBox="0 0 52 83" fill="none" xmlns="http://www.w3.org/2000/svg">
<path d="M11.1221 82.9082H40.5166C46.8155 82.9082 51.2588 78.7578 51.2588 72.8007V10.6426C51.2588 4.68546 46.8155 0.535156 40.5166 0.535156H11.1221C4.82331 0.535156 0.428711 4.68546 0.428711 10.6426V72.8007C0.428711 78.7578 4.82331 82.9082 11.1221 82.9082ZM12.0498 75.8769C9.21781 75.8769 7.46001 74.2656 7.46001 71.58V11.8633C7.46001 9.17765 9.21781 7.56635 12.0498 7.56635H39.5889C42.4698 7.56635 44.1787 9.17765 44.1787 11.8633V71.58C44.1787 74.2656 42.4698 75.8769 39.5889 75.8769H12.0498ZM14.1983 19.1387H17.8604C18.7393 19.1387 19.3741 18.5527 19.3741 17.7227V14.0117C19.3741 13.1816 18.7393 12.5957 17.8604 12.5957H14.1983C13.3682 12.5957 12.7823 13.1816 12.7823 14.0117V17.7227C12.7823 18.5527 13.3682 19.1387 14.1983 19.1387ZM23.9639 19.1387H27.626C28.4561 19.1387 29.0908 18.5527 29.0908 17.7227V14.0117C29.0908 13.1816 28.4561 12.5957 27.626 12.5957H23.9639C23.1338 12.5957 22.5479 13.1816 22.5479 14.0117V17.7227C22.5479 18.5527 23.1338 19.1387 23.9639 19.1387ZM33.7295 19.1387H37.3428C38.2217 19.1387 38.8565 18.5527 38.8565 17.7227V14.0117C38.8565 13.1816 38.2217 12.5957 37.3428 12.5957H33.7295C32.8994 12.5957 32.3135 13.1816 32.3135 14.0117V17.7227C32.3135 18.5527 32.8994 19.1387 33.7295 19.1387ZM14.1983 29.6367H17.8604C18.7393 29.6367 19.3741 29.0508 19.3741 28.2207V24.5098C19.3741 23.6797 18.7393 23.0938 17.8604 23.0938H14.1983C13.3682 23.0938 12.7823 23.6797 12.7823 24.5098V28.2207C12.7823 29.0508 13.3682 29.6367 14.1983 29.6367ZM23.9639 29.6367H27.626C28.4561 29.6367 29.0908 29.0508 29.0908 28.2207V24.5098C29.0908 23.6797 28.4561 23.0938 27.626 23.0938H23.9639C23.1338 23.0938 22.5479 23.6797 22.5479 24.5098V28.2207C22.5479 29.0508 23.1338 29.6367 23.9639 29.6367ZM33.7295 29.6367H37.3428C38.2217 29.6367 38.8565 29.0508 38.8565 28.2207V24.5098C38.8565 23.6797 38.2217 23.0938 37.3428 23.0938H33.7295C32.8994 23.0938 32.3135 23.6797 32.3135 24.5098V28.2207C32.3135 29.0508 32.8994 29.6367 33.7295 29.6367ZM14.1983 40.1836H17.8604C18.7393 40.1836 19.3741 39.5977 19.3741 38.7676V35.0566C19.3741 34.1777 18.7393 33.5918 17.8604 33.5918H14.1983C13.3682 33.5918 12.7823 34.1777 12.7823 35.0566V38.7676C12.7823 39.5977 13.3682 40.1836 14.1983 40.1836ZM23.9639 40.1836H27.626C28.4561 40.1836 29.0908 39.5977 29.0908 38.7676V35.0566C29.0908 34.1777 28.4561 33.5918 27.626 33.5918H23.9639C23.1338 33.5918 22.5479 34.1777 22.5479 35.0566V38.7676C22.5479 39.5977 23.1338 40.1836 23.9639 40.1836ZM14.1983 70.9453H17.8604C18.7393 70.9453 19.3741 70.3593 19.3741 69.5293V65.7695C19.3741 64.9395 18.7393 64.3535 17.8604 64.3535H14.1983C13.3682 64.3535 12.7823 64.9395 12.7823 65.7695V69.5293C12.7823 70.3593 13.3682 70.9453 14.1983 70.9453ZM23.9639 70.9453H27.626C28.4561 70.9453 29.0908 70.3593 29.0908 69.5293V65.7695C29.0908 64.9395 28.4561 64.3535 27.626 64.3535H23.9639C23.1338 64.3535 22.5479 64.9395 22.5479 65.7695V69.5293C22.5479 70.3593 23.1338 70.9453 23.9639 70.9453ZM33.7295 70.9453H37.3428C38.2217 70.9453 38.8565 70.3593 38.8565 69.5293V65.7695C38.8565 64.9395 38.2217 64.3535 37.3428 64.3535H33.7295C32.8994 64.3535 32.3135 64.9395 32.3135 65.7695V69.5293C32.3135 70.3593 32.8994 70.9453 33.7295 70.9453Z" fill="black"/>
</svg>
