<svg width="66" height="88" viewBox="0 0 66 88" fill="none" xmlns="http://www.w3.org/2000/svg">
<path d="M11.1387 87.3985H54.5469C60.8946 87.3985 65.2891 83.1992 65.2891 77.2422V10.25C65.2891 4.24412 60.8946 0.0449219 54.5469 0.0449219H11.1387C4.83986 0.0449219 0.396484 4.24412 0.396484 10.25V77.2422C0.396484 83.1992 4.83986 87.3985 11.1387 87.3985ZM12.0664 80.3672C9.18556 80.3672 7.42776 78.7071 7.42776 76.0215V11.4219C7.42776 8.73632 9.18556 7.07623 12.0664 7.07623H53.6192C56.5 7.07623 58.2579 8.73632 58.2579 11.4219V76.0215C58.2579 78.7071 56.5 80.3672 53.6192 80.3672H12.0664ZM15.875 20.6504H19.0977C20.1231 20.6504 20.9043 19.9668 20.9043 18.9902V15.6211C20.9043 14.6445 20.1231 13.9609 19.0977 13.9609H15.875C14.9473 13.9609 14.2149 14.6934 14.2149 15.6211V18.9902C14.2149 19.918 14.9473 20.6504 15.875 20.6504ZM26.1289 20.6504H29.3516C30.377 20.6504 31.1094 19.9668 31.1094 18.9902V15.6211C31.1094 14.6445 30.377 13.9609 29.3516 13.9609H26.1289C25.2012 13.9609 24.4688 14.6934 24.4688 15.6211V18.9902C24.4688 19.918 25.2012 20.6504 26.1289 20.6504ZM36.2852 20.6504H39.5567C40.5821 20.6504 41.3633 19.9668 41.3633 18.9902V15.6211C41.3633 14.6445 40.5821 13.9609 39.5567 13.9609H36.2852C35.3575 13.9609 34.6739 14.6934 34.6739 15.6211V18.9902C34.6739 19.918 35.3575 20.6504 36.2852 20.6504ZM46.4903 20.6504H49.8106C50.836 20.6504 51.5684 19.9668 51.5684 18.9902V15.6211C51.5684 14.6445 50.836 13.9609 49.8106 13.9609H46.4903C45.5625 13.9609 44.8301 14.6934 44.8301 15.6211V18.9902C44.8301 19.918 45.5625 20.6504 46.4903 20.6504ZM15.875 30.8555H19.0977C20.1231 30.8555 20.9043 30.123 20.9043 29.1465V25.7773C20.9043 24.8496 20.1231 24.166 19.0977 24.166H15.875C14.9473 24.166 14.2149 24.8496 14.2149 25.7773V29.1465C14.2149 30.123 14.9473 30.8555 15.875 30.8555ZM26.1289 30.8555H29.3516C30.377 30.8555 31.1094 30.123 31.1094 29.1465V25.7773C31.1094 24.8496 30.377 24.166 29.3516 24.166H26.1289C25.2012 24.166 24.42 24.8496 24.42 25.7773V29.1465C24.42 30.123 25.2012 30.8555 26.1289 30.8555ZM36.2852 30.8555H39.5567C40.5821 30.8555 41.3633 30.123 41.3633 29.1953V25.7773C41.3633 24.8496 40.5821 24.166 39.5567 24.166H36.2852C35.3575 24.166 34.6739 24.8496 34.6739 25.7773V29.1953C34.6739 30.123 35.3575 30.8555 36.2852 30.8555ZM46.4903 30.8555H49.8106C50.836 30.8555 51.5684 30.123 51.5684 29.1953V25.7773C51.5684 24.8496 50.836 24.166 49.8106 24.166H46.4903C45.5625 24.166 44.8301 24.8496 44.8301 25.7773V29.1953C44.8301 30.123 45.5625 30.8555 46.4903 30.8555ZM15.875 41.0605H19.0977C20.1231 41.0605 20.9043 40.377 20.9043 39.4004V36.0312C20.9043 35.0547 20.1231 34.3223 19.0977 34.3223H15.875C14.9473 34.3223 14.2149 35.0547 14.2149 36.0312V39.4004C14.2149 40.3281 14.9473 41.0605 15.875 41.0605ZM26.1289 41.0605H29.3516C30.377 41.0605 31.1094 40.377 31.1094 39.4004V36.0312C31.1094 35.0547 30.377 34.3223 29.3516 34.3223H26.1289C25.2012 34.3223 24.42 35.0547 24.42 36.0312V39.4004C24.42 40.3281 25.2012 41.0605 26.1289 41.0605ZM15.875 73.4824H19.0977C20.1231 73.4824 20.9043 72.7988 20.9043 71.8711V68.4531C20.9043 67.4766 20.1231 66.793 19.0977 66.793H15.875C14.9473 66.793 14.2149 67.5254 14.2149 68.4531V71.8711C14.2149 72.7988 14.9473 73.4824 15.875 73.4824ZM26.1289 73.4824H29.3516C30.377 73.4824 31.1094 72.7988 31.1094 71.8711V68.4531C31.1094 67.4766 30.377 66.793 29.3516 66.793H26.1289C25.2012 66.793 24.42 67.5254 24.42 68.4531V71.8711C24.42 72.7988 25.2012 73.4824 26.1289 73.4824ZM36.2852 73.4824H39.6055C40.5821 73.4824 41.3633 72.7988 41.3633 71.8711V68.4531C41.3633 67.4766 40.5821 66.793 39.6055 66.793H36.2852C35.3575 66.793 34.6739 67.5254 34.6739 68.4531V71.8711C34.6739 72.7988 35.3575 73.4824 36.2852 73.4824ZM46.4903 73.4824H49.8106C50.836 73.4824 51.5684 72.7988 51.5684 71.8711V68.4531C51.5684 67.4766 50.836 66.793 49.8106 66.793H46.4903C45.5625 66.793 44.8789 67.5254 44.8789 68.4531V71.8711C44.8789 72.7988 45.5625 73.4824 46.4903 73.4824Z" fill="black"/>
</svg>
