<svg width="90" height="92" viewBox="0 0 90 92" fill="none" xmlns="http://www.w3.org/2000/svg">
<path d="M44.8462 33.5879C54.0259 33.5879 61.5454 26.0684 61.5454 16.9375C61.5454 7.80661 54.0259 0.287109 44.8462 0.287109C35.6177 0.287109 28.147 7.80661 28.147 16.9375C28.147 26.0684 35.6177 33.5879 44.8462 33.5879ZM16.9654 62.3965C26.145 62.3965 33.6646 54.877 33.6646 45.6973C33.6646 36.5664 26.145 29.0469 16.9654 29.0469C7.73677 29.0469 0.266113 36.5664 0.266113 45.6973C0.266113 54.877 7.73677 62.3965 16.9654 62.3965ZM72.7759 62.3965C81.9068 62.3965 89.4263 54.877 89.4263 45.6973C89.4263 36.5664 81.9068 29.0469 72.7759 29.0469C63.5474 29.0469 56.0767 36.5664 56.0767 45.6973C56.0767 54.877 63.5474 62.3965 72.7759 62.3965ZM16.9654 55.5117C11.399 55.5117 7.10207 51.2148 7.10207 45.6973C7.10207 40.1797 11.399 35.7363 16.9654 35.7363C22.4829 35.7363 26.7798 40.1797 26.7798 45.6973C26.7798 51.2148 22.4829 55.5117 16.9654 55.5117ZM72.7759 55.5117C67.2095 55.5117 62.8638 51.2148 62.8638 45.6973C62.8638 40.1797 67.2095 35.7363 72.7759 35.7363C78.2935 35.7363 82.5904 40.1797 82.5904 45.6973C82.5904 51.2148 78.2935 55.5117 72.7759 55.5117ZM44.8462 91.1562C54.0259 91.1562 61.5454 83.6367 61.5454 74.5059C61.5454 65.375 54.0259 57.8555 44.8462 57.8555C35.6177 57.8555 28.147 65.375 28.147 74.5059C28.147 83.6367 35.6177 91.1562 44.8462 91.1562ZM44.8462 84.3203C39.2798 84.3203 34.9829 80.0234 34.9829 74.5059C34.9829 68.9883 39.2798 64.4961 44.8462 64.4961C50.3638 64.4961 54.6607 68.9883 54.6607 74.5059C54.6607 80.0234 50.3638 84.3203 44.8462 84.3203Z" fill="black"/>
</svg>
