<svg width="90" height="92" viewBox="0 0 90 92" fill="none" xmlns="http://www.w3.org/2000/svg">
<path d="M44.8461 33.5879C54.0258 33.5879 61.5452 26.0684 61.5452 16.9375C61.5452 7.80661 54.0258 0.287109 44.8461 0.287109C35.6175 0.287109 28.1469 7.80661 28.1469 16.9375C28.1469 26.0684 35.6175 33.5879 44.8461 33.5879ZM44.8461 26.752C39.2797 26.752 34.9827 22.4551 34.9827 16.9375C34.9827 11.4199 39.2797 6.9277 44.8461 6.9277C50.3637 6.9277 54.6605 11.4199 54.6605 16.9375C54.6605 22.4551 50.3637 26.752 44.8461 26.752ZM16.9653 62.3965C26.1449 62.3965 33.6645 54.877 33.6645 45.6973C33.6645 36.5664 26.1449 29.0469 16.9653 29.0469C7.73665 29.0469 0.265991 36.5664 0.265991 45.6973C0.265991 54.877 7.73665 62.3965 16.9653 62.3965ZM72.7758 62.3965C81.9067 62.3965 89.4262 54.877 89.4262 45.6973C89.4262 36.5664 81.9067 29.0469 72.7758 29.0469C63.5473 29.0469 56.0765 36.5664 56.0765 45.6973C56.0765 54.877 63.5473 62.3965 72.7758 62.3965ZM72.7758 55.5117C67.2094 55.5117 62.8637 51.2148 62.8637 45.6973C62.8637 40.1797 67.2094 35.7363 72.7758 35.7363C78.2934 35.7363 82.5903 40.1797 82.5903 45.6973C82.5903 51.2148 78.2934 55.5117 72.7758 55.5117ZM44.8461 91.1562C54.0258 91.1562 61.5452 83.6367 61.5452 74.5059C61.5452 65.375 54.0258 57.8555 44.8461 57.8555C35.6175 57.8555 28.1469 65.375 28.1469 74.5059C28.1469 83.6367 35.6175 91.1562 44.8461 91.1562ZM44.8461 84.3203C39.2797 84.3203 34.9827 80.0234 34.9827 74.5059C34.9827 68.9883 39.2797 64.4961 44.8461 64.4961C50.3637 64.4961 54.6605 68.9883 54.6605 74.5059C54.6605 80.0234 50.3637 84.3203 44.8461 84.3203Z" fill="black"/>
</svg>
