<svg width="90" height="92" viewBox="0 0 90 92" fill="none" xmlns="http://www.w3.org/2000/svg">
<path d="M44.8457 33.5879C54.0254 33.5879 61.5449 26.0684 61.5449 16.9375C61.5449 7.80661 54.0254 0.287109 44.8457 0.287109C35.6172 0.287109 28.1465 7.80661 28.1465 16.9375C28.1465 26.0684 35.6172 33.5879 44.8457 33.5879ZM44.8457 26.752C39.2793 26.752 34.9824 22.4551 34.9824 16.9375C34.9824 11.4199 39.2793 6.9277 44.8457 6.9277C50.3633 6.9277 54.6602 11.4199 54.6602 16.9375C54.6602 22.4551 50.3633 26.752 44.8457 26.752ZM16.9649 62.3965C26.1445 62.3965 33.6641 54.877 33.6641 45.6973C33.6641 36.5664 26.1445 29.0469 16.9649 29.0469C7.73629 29.0469 0.265625 36.5664 0.265625 45.6973C0.265625 54.877 7.73629 62.3965 16.9649 62.3965ZM72.7754 62.3965C81.9063 62.3965 89.4258 54.877 89.4258 45.6973C89.4258 36.5664 81.9063 29.0469 72.7754 29.0469C63.5469 29.0469 56.0762 36.5664 56.0762 45.6973C56.0762 54.877 63.5469 62.3965 72.7754 62.3965ZM16.9649 55.5117C11.3985 55.5117 7.10158 51.2148 7.10158 45.6973C7.10158 40.1797 11.3985 35.7363 16.9649 35.7363C22.4824 35.7363 26.7793 40.1797 26.7793 45.6973C26.7793 51.2148 22.4824 55.5117 16.9649 55.5117ZM72.7754 55.5117C67.209 55.5117 62.8633 51.2148 62.8633 45.6973C62.8633 40.1797 67.209 35.7363 72.7754 35.7363C78.293 35.7363 82.5899 40.1797 82.5899 45.6973C82.5899 51.2148 78.293 55.5117 72.7754 55.5117ZM44.8457 91.1562C54.0254 91.1562 61.5449 83.6367 61.5449 74.5059C61.5449 65.375 54.0254 57.8555 44.8457 57.8555C35.6172 57.8555 28.1465 65.375 28.1465 74.5059C28.1465 83.6367 35.6172 91.1562 44.8457 91.1562Z" fill="black"/>
</svg>
