<svg width="80" height="80" viewBox="0 0 80 80" fill="none" xmlns="http://www.w3.org/2000/svg">
<path d="M39.8203 79.1504C61.3535 79.1504 79.2735 61.2793 79.2735 39.7461C79.2735 18.2129 61.3047 0.341797 39.7715 0.341797C18.2871 0.341797 0.416016 18.2129 0.416016 39.7461C0.416016 61.2793 18.336 79.1504 39.8203 79.1504ZM39.8203 71.7285C22.0957 71.7285 7.93558 57.5195 7.93558 39.7461C7.93558 21.9727 22.0469 7.7637 39.7715 7.7637C57.5449 7.7637 71.7539 21.9727 71.8028 39.7461C71.8516 57.5195 57.5938 71.7285 39.8203 71.7285ZM20.2891 44.0918H39.7715C41.4805 44.0918 42.7989 42.7734 42.7989 41.1133V15.9668C42.7989 14.2578 41.4805 12.9395 39.7715 12.9395C38.1113 12.9395 36.793 14.2578 36.793 15.9668V38.0859H20.2891C18.5801 38.0859 17.3106 39.4043 17.3106 41.1133C17.3106 42.7734 18.5801 44.0918 20.2891 44.0918Z" fill="black"/>
</svg>
