<svg width="128" height="128" viewBox="0 0 128 128" fill="none" xmlns="http://www.w3.org/2000/svg">
<path d="M63.8235 127.32C98.638 127.32 127.447 98.5118 127.447 63.7461C127.447 28.9316 98.589 0.123047 63.7747 0.123047C29.0091 0.123047 0.249268 28.9316 0.249268 63.7461C0.249268 98.5118 29.0579 127.32 63.8235 127.32ZM63.8235 118.238C33.6477 118.238 9.38017 93.9219 9.38017 63.7461C9.38017 33.5215 33.5989 9.25394 63.7747 9.25394C93.999 9.25394 118.267 33.5215 118.316 63.7461C118.365 93.9219 94.048 118.238 63.8235 118.238ZM30.0345 70.1426H63.7747C65.9231 70.1426 67.5833 68.4824 67.5833 66.334V22.7793C67.5833 20.6797 65.9231 19.0195 63.7747 19.0195C61.7239 19.0195 60.0149 20.6797 60.0149 22.7793V62.5742H30.0345C27.886 62.5742 26.2747 64.2344 26.2747 66.334C26.2747 68.4824 27.886 70.1426 30.0345 70.1426Z" fill="black"/>
</svg>
