<svg width="80" height="80" viewBox="0 0 80 80" fill="none" xmlns="http://www.w3.org/2000/svg">
<path d="M39.8203 79.1504C61.3535 79.1504 79.2735 61.2793 79.2735 39.7461C79.2735 18.2129 61.3047 0.341797 39.7715 0.341797C18.2871 0.341797 0.416016 18.2129 0.416016 39.7461C0.416016 61.2793 18.336 79.1504 39.8203 79.1504ZM39.8203 71.7285C22.0957 71.7285 7.93558 57.5195 7.93558 39.7461C7.93558 21.9727 22.0469 7.7637 39.7715 7.7637C57.5449 7.7637 71.7539 21.9727 71.8028 39.7461C71.8516 57.5195 57.5938 71.7285 39.8203 71.7285ZM39.8203 61.8164C40.9434 61.8164 41.8223 60.9863 41.8223 59.8145V57.2266C47.6328 56.6406 52.3692 53.2227 52.3692 47.2656C52.3692 41.8945 48.8535 38.623 42.1641 37.5L41.8223 37.4512V27.2949C44.2149 27.832 45.8262 29.2969 46.6563 31.7383C47.1446 32.959 47.9258 33.7891 49.293 33.7891C50.7578 33.7891 51.7832 32.7637 51.7832 31.2988C51.7832 30.8594 51.7344 30.4688 51.6367 30.0293C50.5625 25.7812 46.6563 22.998 41.8223 22.4121V19.7754C41.8223 18.5547 40.9434 17.7734 39.8203 17.7734C38.6485 17.7734 37.8184 18.5547 37.8184 19.7754V22.4121C31.9102 23.0957 27.8574 26.7578 27.8574 32.0801C27.8574 37.1094 31.2266 40.0879 37.6231 41.6016L37.8184 41.6504V52.3926C34.6446 51.8555 32.9356 50.1465 32.252 47.8516C31.7637 46.4355 30.8848 45.752 29.6153 45.752C28.1504 45.752 27.125 46.7773 27.125 48.2422C27.125 48.6816 27.2227 49.0723 27.3203 49.5117C28.4922 53.9062 32.7891 56.6406 37.8184 57.1777V59.8145C37.8184 60.9863 38.6485 61.8164 39.8203 61.8164ZM37.8184 36.377L37.5254 36.2793C34.4492 35.3027 33.1309 33.8867 33.1309 31.7871C33.1309 29.7363 34.791 27.9297 37.8184 27.2949V36.377ZM41.8223 42.6758L42.6524 42.8711C45.9727 43.8477 46.9981 45.3613 46.9981 47.5586C46.9981 50.0488 45.4356 51.9043 41.8223 52.3926V42.6758Z" fill="black"/>
</svg>
