<svg width="82" height="78" viewBox="0 0 82 78" fill="none" xmlns="http://www.w3.org/2000/svg">
<path d="M70.9407 76C72.2591 77.3184 74.4075 77.3184 75.677 76C76.9466 74.6816 76.9954 72.582 75.677 71.2637L6.29233 1.92769C5.02273 0.60939 2.8255 0.60939 1.50714 1.92769C0.23761 3.19729 0.23761 5.39449 1.50714 6.66409L70.9407 76ZM63.763 52.5137L68.8899 57.6895C76.8001 48.8027 81.2923 39.3789 81.2923 29.9062C81.2923 16.1367 71.8196 6.3711 59.1731 6.3711C51.9954 6.3711 46.429 9.64259 42.8645 14.623C39.3001 9.69139 33.6848 6.3711 26.5071 6.3711C23.8216 6.3711 21.3313 6.8105 18.9388 7.6406L24.847 13.5488C25.3352 13.4512 25.9212 13.4023 26.4095 13.4023C33.6848 13.4023 37.5911 17.9434 39.9348 21.4102C41.1555 23.1191 41.8391 23.6074 42.8645 23.6074C43.8411 23.6074 44.4759 23.0703 45.7454 21.4102C48.2845 18.041 52.0442 13.4023 59.2708 13.4023C67.8645 13.4023 74.2122 19.9941 74.2122 29.9062C74.2122 37.377 70.013 45.2871 63.763 52.5137ZM56.8782 68.8711L51.8489 63.8418C49.2122 65.9414 46.429 67.9922 43.6946 69.7988C43.2552 70.0918 43.011 70.2871 42.8645 70.2871C42.718 70.2871 42.4251 70.0918 41.9856 69.7988C26.5071 59.5449 11.468 44.0664 11.468 29.9062C11.468 27.8555 11.761 25.9512 12.2981 24.291L6.82943 18.7734C5.26693 22.0449 4.388 25.8047 4.388 29.9062C4.388 46.459 17.9134 62.6699 39.7884 76.5371C40.7161 77.123 41.9856 77.709 42.8645 77.709C43.6946 77.709 44.9641 77.123 45.8919 76.5371C49.7981 74.0957 53.5091 71.5078 56.8782 68.8711Z" fill="black"/>
</svg>
