<svg width="78" height="72" viewBox="0 0 78 72" fill="none" xmlns="http://www.w3.org/2000/svg">
<path d="M0.417969 23.9062C0.417969 40.459 13.8945 56.6699 35.8184 70.5371C36.6973 71.123 38.0156 71.709 38.8457 71.709C39.7246 71.709 40.9941 71.123 41.873 70.5371C63.7969 56.6699 77.2734 40.459 77.2734 23.9062C77.2734 10.1367 67.8008 0.371094 55.2031 0.371094C47.9766 0.371094 42.4102 3.64259 38.8457 8.62299C35.3301 3.69139 29.7148 0.371094 22.4883 0.371094C9.8906 0.371094 0.417969 10.1367 0.417969 23.9062ZM7.4492 23.9062C7.4492 13.9941 13.8457 7.40229 22.4395 7.40229C29.666 7.40229 33.5723 11.9434 35.9648 15.4102C37.1367 17.1191 37.8691 17.6074 38.8457 17.6074C39.8711 17.6074 40.457 17.0703 41.7266 15.4102C44.3145 12.041 48.0742 7.40229 55.3008 7.40229C63.8945 7.40229 70.2422 13.9941 70.2422 23.9062C70.2422 38.0664 55.1543 53.5449 39.7246 63.7988C39.2852 64.0918 38.9922 64.2871 38.8457 64.2871C38.6992 64.2871 38.4062 64.0918 38.0156 63.7988C22.5371 53.5449 7.4492 38.0664 7.4492 23.9062Z" fill="black"/>
</svg>
