<svg width="479" height="104" viewBox="0 0 479 104" fill="none" xmlns="http://www.w3.org/2000/svg">
<path d="M0.578125 102H12.8125V59.3203C12.8125 46.875 20.3359 38.2969 31.6562 38.2969C43.0469 38.2969 49.7969 46.1016 49.7969 59.3203V102H62.0312V57.2109C62.0312 39.4922 51.4141 27.4688 35.875 27.4688C24.9766 27.4688 17.0312 32.3203 13.0938 40.5469H12.8125V0.539062H0.578125V102ZM102.531 103.406C113.641 103.406 121.094 98.4141 125.031 91.5938H125.312V102H137.547V28.875H125.312V71.9062C125.312 84.3516 117.789 92.5781 106.258 92.5781C95.0078 92.5781 89.4531 86.0391 89.4531 74.1562V28.875H77.2188V76.3359C77.2188 93 86.5 103.406 102.531 103.406ZM153.508 102H165.742V56.1562C165.742 45.9609 172.773 38.2969 182.477 38.2969C191.547 38.2969 197.453 44.1328 197.453 52.9922V102H209.688V55.5234C209.688 45.5391 216.508 38.2969 226.211 38.2969C235.844 38.2969 241.398 44.2734 241.398 54.3281V102H253.633V51.5156C253.633 36.9609 244.281 27.4688 229.797 27.4688C219.531 27.4688 210.953 32.7422 206.875 41.5312H206.594C203.43 32.6016 196.047 27.4688 186.062 27.4688C176.641 27.4688 169.328 32.3203 166.023 39.5625H165.742V28.875H153.508V102ZM290.617 103.406C300.391 103.406 309.18 98.1328 313.469 90.1172H313.75V102H325.984V51.4453C325.984 36.8203 315.156 27.4688 297.859 27.4688C280.633 27.4688 270.156 37.1719 269.102 49.1953L269.031 49.9688H280.844L280.984 49.3359C282.391 42.7969 288.297 38.2969 297.719 38.2969C307.914 38.2969 313.75 43.7109 313.75 52.6406V58.7578L292.797 59.9531C275.992 60.9375 266.289 68.7422 266.289 81.1875V81.3281C266.289 94.6172 276.062 103.406 290.617 103.406ZM278.805 81.3281V81.1875C278.805 74.3672 284.43 70.0078 294.203 69.4453L313.75 68.25V74.2266C313.75 84.8438 304.891 92.7891 293.359 92.7891C284.57 92.7891 278.805 88.3594 278.805 81.3281ZM341.523 102H353.758V58.9688C353.758 46.5234 361.281 38.2969 372.812 38.2969C384.062 38.2969 389.617 44.8359 389.617 56.7188V102H401.852V54.5391C401.852 37.875 392.57 27.4688 376.539 27.4688C365.43 27.4688 357.977 32.4609 354.039 39.2812H353.758V28.875H341.523V102ZM447.555 103.406C463.516 103.406 475.469 93.8438 477.859 81.75L478 81.0469H465.977L465.766 81.6797C463.656 87.9375 457.117 92.5781 447.836 92.5781C434.828 92.5781 426.531 83.7891 426.25 68.7422H478.914V64.2422C478.914 42.3047 466.75 27.4688 446.781 27.4688C426.812 27.4688 413.875 43.0078 413.875 65.6484V65.7188C413.875 88.7109 426.531 103.406 447.555 103.406ZM446.711 38.2969C457.398 38.2969 465.273 44.9766 466.469 59.1797H426.461C427.797 45.5391 436.094 38.2969 446.711 38.2969Z" fill="black"/>
</svg>
