<svg width="80" height="80" viewBox="0 0 80 80" fill="none" xmlns="http://www.w3.org/2000/svg">
<path d="M39.8202 79.1504C61.3534 79.1504 79.2734 61.2793 79.2734 39.7461C79.2734 18.2129 61.3046 0.341797 39.7714 0.341797C18.287 0.341797 0.415894 18.2129 0.415894 39.7461C0.415894 61.2793 18.3359 79.1504 39.8202 79.1504ZM39.8202 71.7285C22.0956 71.7285 7.93545 57.5195 7.93545 39.7461C7.93545 21.9727 22.0468 7.7637 39.7714 7.7637C57.5448 7.7637 71.7538 21.9727 71.8027 39.7461C71.8515 57.5195 57.5937 71.7285 39.8202 71.7285ZM28.8827 54.7852H32.5937C34.5956 54.7852 35.5234 53.7109 35.5234 52.1973V27.2461C35.5234 25.7324 34.5956 24.6582 32.5937 24.6582H28.8827C26.9296 24.6582 26.0019 25.7324 26.0019 27.2461V52.1973C26.0019 53.7109 26.9296 54.7852 28.8827 54.7852ZM47.0468 54.7852H50.8066C52.7109 54.7852 53.6386 53.7109 53.6386 52.1973V27.2461C53.6386 25.7324 52.7109 24.6582 50.8066 24.6582H47.0468C45.0937 24.6582 44.1171 25.7324 44.1171 27.2461V52.1973C44.1171 53.7109 45.0937 54.7852 47.0468 54.7852Z" fill="black"/>
</svg>
