<svg width="80" height="80" viewBox="0 0 80 80" fill="none" xmlns="http://www.w3.org/2000/svg">
<path d="M39.8203 79.1504C61.3535 79.1504 79.2735 61.2793 79.2735 39.7461C79.2735 18.2129 61.3047 0.341797 39.7715 0.341797C18.2871 0.341797 0.416016 18.2129 0.416016 39.7461C0.416016 61.2793 18.336 79.1504 39.8203 79.1504ZM39.8203 71.7285C22.0957 71.7285 7.93558 57.5195 7.93558 39.7461C7.93558 21.9727 22.0469 7.7637 39.7715 7.7637C57.5449 7.7637 71.7539 21.9727 71.8028 39.7461C71.8516 57.5195 57.5938 71.7285 39.8203 71.7285ZM54.4688 41.9434C56.1778 40.9668 56.1289 38.623 54.4688 37.6465L32.7403 24.8535C31.0313 23.8281 28.6875 24.6094 28.6875 26.5625V52.9785C28.6875 54.9316 30.836 55.8594 32.7403 54.6875L54.4688 41.9434Z" fill="black"/>
</svg>
