<svg width="75" height="75" viewBox="0 0 75 75" fill="none" xmlns="http://www.w3.org/2000/svg">
<path d="M37.6856 74.9531C58.1446 74.9531 74.9414 58.2051 74.9414 37.7461C74.9414 17.2871 58.1446 0.539062 37.6856 0.539062C17.2266 0.539062 0.478516 17.2871 0.478516 37.7461C0.478516 58.2051 17.2266 74.9531 37.6856 74.9531ZM37.6856 72.7558C18.3985 72.7558 2.72461 57.0332 2.72461 37.7461C2.72461 18.459 18.3985 2.73626 37.6856 2.73626C57.0215 2.73626 72.6953 18.459 72.6953 37.7461C72.6953 57.0332 57.0215 72.7558 37.6856 72.7558ZM37.6856 52.1992C45.6934 52.1992 52.1387 45.7051 52.1387 37.6973C52.1387 29.7383 45.6934 23.2441 37.6856 23.2441C29.6778 23.2441 23.2324 29.7383 23.2324 37.6973C23.2324 45.7051 29.6778 52.1992 37.6856 52.1992Z" fill="black"/>
</svg>
