<svg id="Layer_1" data-name="Layer 1" xmlns="http://www.w3.org/2000/svg" viewBox="0 0 580.71 239.75"><defs><style>.cls-1{fill:#010101;fill-rule:evenodd;}</style></defs><path class="cls-1" d="M542.2,55.58c-.16,0-16.18-4.32-44.22-8.21-29.94-4.15-83.4-2.14-139.53,5.26-52.31,6.89-60.77,6.53-79.32,5.74l-7.89-.32c-11.69-.41-24.6-2.91-39.56-5.8-17.12-3.3-36.52-7-60.25-9-97.61-8-130.5,2.66-131.85,3.12l-1.23.36v47.4l.87.36c8.1,2.78,13.56,22.82,17.55,37.45,1.8,6.61,3.36,12.31,4.89,15.63l.68,1.46c5.2,11.33,13.9,30.28,35.65,38.88,17.7,7,42.46,6.93,71.13,6.87,7.61,0,15.48,0,23.48.08h.92c15.41,0,29.32-5.77,41.36-17.17C244.7,168.4,250.5,158,253.28,153l.59-1.05c4.71-8.31,16.24-48.26,17.48-55.47,1.11-6.37,11.74-10,21.67-10.24,10.23-.25,13.81,5.41,14.43,6.55C308.6,95,319.18,127,326,148.08c2.4,10.27,22.92,51.19,74,51.38h3.82c48.13,0,63.94-3.45,85.66-13.41,18.58-8.51,30.32-44.22,36.63-63.4,1.24-3.76,2.21-6.72,2.94-8.55,3.93-9.84,10.54-10.24,10.81-10.25h2.47V56ZM253,107.19c-4.58,18.91-10.19,38.34-20.24,52.37-10.43,14.57-24.64,21.57-43.5,21.37-4.6,0-9.13-.06-13.56-.06h-7.24c-31.8,0-59.25.09-70.79-9.58l-2.17-1.8c-13.62-11.28-27.7-23-29-72.52C66,79.73,76.65,60.74,95.29,58.81c18.18-1.88,72.38-5.21,104.38,1.86,3.76.83,7.57,1.58,11.26,2.3,17.1,3.35,33.25,6.52,40.12,17.2C255.17,86.61,255.8,95.45,253,107.19Zm258.92.28c-4.24,32.27-14.91,57.79-27.2,65-13.54,8-30.45,11.52-58.37,12.26l-5.5.16c-19.2.6-41,1.27-58.28-7.77-10.73-5.6-16.39-15.75-21.7-26.54-7.64-15.51-11.7-30.4-12.07-44.25C328.18,84.9,341.89,70,365.43,66.41a369.82,369.82,0,0,1,40.38-4.18c13.52-.36,27.2-.72,39.71-.72,22.83,0,41.77,1.21,48.71,5.87l2.69,1.77c9.88,6.44,18.41,12,15,38.32Z"/></svg>