<svg width="118" height="86" viewBox="0 0 118 86" fill="none" xmlns="http://www.w3.org/2000/svg">
<path d="M3.79292 71.293H28.3047C28.1582 72.2207 28.1094 73.1484 28.1094 74.0273C28.1094 80.4238 31.5762 85.0137 39.1445 85.0137C47.3476 85.0137 54.0859 79.7891 58.7246 71.293H113.901C115.805 71.293 117.416 69.7305 117.416 67.7773C117.416 65.8731 115.805 64.2617 113.901 64.2617H61.8008C64.0469 57.9629 65.414 50.5898 65.707 42.582C68.0508 42.0938 70.4922 41.8496 73.0312 41.8496C74.0566 41.8496 74.6914 42.3867 74.6914 43.2168C74.6914 46.6348 72.9824 48.9297 72.9824 52.25C72.9824 55.2773 75.2773 57.2793 78.3535 57.2793C86.3613 57.2793 95.8337 44.1934 98.7637 44.1934C101.352 44.1934 98.1777 56.0098 108.188 56.0098C109.848 56.0098 112.045 55.5703 113.608 54.4961C114.633 53.7637 115.366 52.7383 115.366 51.3711C115.366 49.7598 114.291 48.4414 112.631 48.4414C111.117 48.4414 110.092 49.5156 108.871 49.5156C104.916 49.5156 108.578 36.8203 100.766 36.8203C93.8807 36.8203 83.2363 49.4668 80.9414 49.4668C80.6972 49.4668 80.4531 49.3203 80.4531 48.9785C80.4531 47.9043 82.0156 44.9258 82.0156 41.8496C82.0156 37.8457 78.6465 35.2578 73.5195 35.2578C70.834 35.2578 68.1972 35.502 65.6582 35.9902C64.7305 15.9707 55.0625 0.00390625 40.2676 0.00390625C30.2578 0.00390625 22.4941 8.50001 22.4941 19.3887C22.4941 32.2305 30.8926 42.9238 40.414 49.9062C35.9219 54.3984 32.5039 59.4277 30.4043 64.2617H3.79292C1.88872 64.2617 0.277344 65.8731 0.277344 67.7773C0.277344 69.7305 1.88872 71.293 3.79292 71.293ZM29.0859 19.3887C29.0859 12.1621 33.9687 6.59571 40.2676 6.59571C51.498 6.59571 58.7734 20.5605 59.164 37.7969C53.9394 39.6523 49.2031 42.4844 45.0527 45.7559C37.582 40.3359 29.0859 31.2051 29.0859 19.3887ZM2.62112 55.8145C3.74412 56.9375 5.45312 56.8887 6.57622 55.8145L11.1172 51.2734L15.707 55.8145C16.8301 56.9375 18.539 56.9375 19.6621 55.8145C20.7851 54.6914 20.7851 52.9336 19.6621 51.8594L15.0722 47.3184L19.6621 42.7773C20.7851 41.6543 20.7851 39.9453 19.6621 38.8223C18.539 37.6992 16.8301 37.748 15.707 38.8223L11.1172 43.3633L6.57622 38.8223C5.45312 37.6992 3.74412 37.6992 2.62112 38.8223C1.49802 39.9453 1.49802 41.7031 2.62112 42.7773L7.16212 47.3184L2.62112 51.8594C1.49802 52.9824 1.49802 54.6914 2.62112 55.8145ZM48.9101 55.082C49.4472 55.375 49.9844 55.4727 50.5215 55.4727C52.2305 55.4727 53.5 54.1055 53.5 52.5918C53.5 51.5664 53.0117 50.4922 51.791 49.9062C51.4492 49.7109 51.0586 49.5156 50.7168 49.3203C53.207 47.5625 55.9902 45.9512 58.9687 44.7305C58.4805 52.0547 56.9668 58.793 54.7695 64.2617H37.3867C39.2422 60.6484 42.123 56.8398 45.7851 53.373C46.8105 54.0078 47.8847 54.5449 48.9101 55.082ZM34.8965 72.709C34.8965 72.2695 34.8965 71.7813 34.9941 71.293H51.0586C47.9336 75.7852 44.125 78.4219 39.9258 78.4219C36.459 78.4219 34.8965 76.127 34.8965 72.709Z" fill="black"/>
</svg>
